<?xml version="1.0" encoding="UTF-8"?>
<!DOCTYPE svg PUBLIC "-//W3C//DTD SVG 1.1//EN" "http://www.w3.org/Graphics/SVG/1.1/DTD/svg11.dtd">
<!-- Creator: CorelDRAW -->
<svg xmlns="http://www.w3.org/2000/svg" xml:space="preserve" width="148.797mm" height="152.873mm" version="1.1" style="shape-rendering:geometricPrecision; text-rendering:geometricPrecision; image-rendering:optimizeQuality; fill-rule:evenodd; clip-rule:evenodd"
viewBox="0 0 14865.41 15272.64"
 xmlns:xlink="http://www.w3.org/1999/xlink"
 xmlns:xodm="http://www.corel.com/coreldraw/odm/2003">
 <defs>
  <style type="text/css">
   <![CDATA[
    .fil1 {fill:white;fill-rule:nonzero}
    .fil0 {fill:#EE3338;fill-rule:nonzero}
   ]]>
  </style>
 </defs>
 <g id="Camada_x0020_1">
  <metadata id="CorelCorpID_0Corel-Layer"/>
  <g id="_52238175840">
   <path class="fil0" d="M7398 526.63c-1906.4,10.22 -3631.48,811.24 -4879.96,2099.79 -1249.03,1289.13 -2020.56,3066.2 -2019.5,5028.07l0.98 0 0 0.63 -0.98 0c1.19,1967.49 779.86,3748.57 2037.58,5037.51 1255.75,1286.92 2989.35,2082.49 4902.75,2081.48l0 -0.98 0.59 0 0 0.98c1852.36,-1.04 3535.17,-748.42 4778.52,-1964.89 1251.52,-1224.46 2058.09,-2923.29 2145.35,-4814.63l4.24 -7495.09 -6969.58 27.13zm-5237.03 1752.46c1337.79,-1380.72 3188.28,-2239.06 5235.08,-2250.03 2489.07,0 4980.1,-19.47 7469.38,-29.06 -1.5,2672 -4.52,5344.04 -4.52,8016.04 -93.32,2022.66 -955.63,3839.21 -2293.64,5148.29 -1333.48,1304.65 -3139.24,2106.22 -5127.79,2107.33l0 0.98 -0.59 0 0 -0.98c-2053.66,1.08 -3913.44,-851.9 -5259.83,-2231.71 -1344.43,-1377.8 -2176.79,-3281.69 -2178.06,-5384.83l-0.98 0 0 -0.63 0.98 0c-1.14,-2096.71 824.05,-3996.6 2159.98,-5375.4z"/>
   <path class="fil1" d="M5292.37 10674.5c0,-192.01 22.34,-328.93 66.44,-410.47 44.61,-81.6 117.64,-122.15 219.1,-122.15 37.56,0 72.08,4.39 102.28,13.46 31.03,8.88 59.45,22.84 85.66,41.56l110.22 -260.03c-40.23,-19.92 -81.35,-34.52 -123.35,-45.24 -41.95,-10.09 -85.22,-15.42 -128.12,-15.42 -80.39,0 -147.33,21.06 -201.52,63.58 -53.75,42.45 -97.91,108.12 -130.71,196.32l0 -216.18 -306.92 0 0 1342.52 306.92 0 0 -587.96zm3973.69 320.18c-93.14,0 -168.34,-20.37 -227.79,-60.47 -59,-40.73 -99.68,-99.55 -121.06,-176.97l-294.23 160.29c56.79,116.82 135.09,203.3 235.59,260.09 100.13,56.67 226.08,84.84 378.24,84.84 197.15,0 351.91,-44.04 464.29,-131.47 112.31,-87.89 168.28,-209.02 168.28,-363.65 0,-107.23 -30.59,-195.87 -92.64,-267.57 -61.23,-71.26 -163.52,-135.54 -306.48,-191.82 -31.03,-13.46 -75.64,-30.27 -133.82,-50.83 -183.18,-67.2 -274.56,-140.86 -274.56,-221.13 0,-53.74 20.56,-96.58 61.23,-128.62 40.67,-32.36 94.86,-48.41 162.18,-48.41 61.67,0 115.42,14.41 161.81,43.4 45.88,29.06 78.67,68.4 97.02,117.27l251.84 -173.61c-38.89,-81.91 -101.46,-144.54 -187.12,-188.7 -85.66,-44.11 -188.45,-66.51 -308.63,-66.51 -178.87,0 -322.27,43.28 -430.71,129.01 -108.83,86.67 -163.01,198.92 -163.01,337.18 0,101.78 32.75,187.57 98.8,258.63 66,71 182.31,140.75 347.98,209.52 29.76,13.2 71.32,29.57 125.95,49.18 161.75,59.45 242.2,131.59 242.2,216.05 0,62.88 -23.16,112.5 -68.21,149.43 -45.49,36.55 -108,54.89 -187.12,54.89zm-1869.05 -10716.84c-3952.24,21.19 -7149.48,3317.03 -7147.26,7376.65 2.15,4071.16 3222.1,7370.81 7189.7,7368.39 3850.41,-2.16 6992.5,-3113.16 7172.65,-7017.57l4.38 -7755.57 -7219.48 28.1zm4255.3 6255.19c157.81,0 292.01,53.81 401.78,161.49 110.15,107.75 164.79,240.55 164.79,398.61 0,153.74 -55.08,285.6 -166.12,395.43 -111.04,109.83 -244.8,164.6 -400.45,164.6 -149.56,0 -278.93,-56.1 -388.71,-168.03 -109.71,-111.86 -164.79,-242.64 -164.79,-392 0,-155.9 54.19,-288.26 161.3,-397.02 107.56,-108.64 238.27,-163.07 392.2,-163.07zm-7092.25 4586.33l-1207.12 0 0 -925.64 147.34 0 77.42 0c173.98,0 302.54,-9.32 385.15,-27.78 81.73,-18.53 153.87,-49.68 214.66,-93.34 75.63,-54.19 134.64,-129.51 177.09,-225.38 42.39,-96.13 63.83,-200.45 63.83,-313.9 0,-113.89 -21.44,-217.7 -63.83,-312.06 -42.45,-93.84 -101.46,-169.16 -177.09,-224.37 -60.79,-43.59 -132.93,-75.51 -214.66,-94.42 -82.61,-18.9 -211.17,-28.67 -385.15,-28.67l-589.35 0 0 2245.57 -142.96 0 0 -2603.83 1714.68 0 0 2603.83zm-1182.63 -1244.36l0 -667.39 100.12 0c205.9,0 347.6,26.33 424.05,78.93 77.42,52.03 115.87,141.94 115.87,269.86 0,118.79 -35.86,201.4 -108,248.29 -72.08,46.83 -215.93,70.3 -431.93,70.3l-100.12 0zm2641.58 1530.59l-1176.53 0 0 -2603.7 1176.53 0 0 2603.7zm2176.36 -286.24l-438.52 0c108.88,-75.76 202.41,-182.17 278.93,-319.6l-299.05 -166.88c-56.85,106.66 -123.28,184.07 -199.81,232.36 -76.02,47.65 -171.39,71.96 -285.92,71.96 -128.56,0 -232.11,-40.8 -309.07,-121.89 -77.86,-81.54 -120.68,-194.22 -129.89,-339.29l1240.36 0 0 -67.2c0,-257.48 -69.98,-457.23 -209.9,-600.2 -139.41,-142.95 -334.39,-214.4 -583.63,-214.4 -238.71,0 -434.14,78.25 -586.3,234.53 -152.1,156.73 -228.18,356.47 -228.18,599.75 0,252.8 73.86,454.89 220.75,606.93 30.65,31.28 62.95,59.26 97.53,83.94l-456.85 0 0 -2603.83 1889.55 0 0 2603.83zm-1360.17 -882.18c28.42,-114.72 77.86,-200.07 148.67,-257.17 71.26,-56.28 165.29,-84.9 281.54,-84.9 123.73,0 219.92,29.06 290.73,87.63 71.32,58.31 114.15,143.09 128.12,254.45l-849.06 0zm600.76 -2666.46l-404.89 -2180.72 -1186.99 2180.72 -271.01 0 -1276.66 -2213.72 -418.41 2213.72 -128.49 0 -889.28 0 850.39 -4229.03 776.4 0 1249.12 2201.1 1184.34 -2201.1 743.22 0 856.03 4229.03 -181.85 0 -901.92 0zm2572.93 3834.87l-1529.39 0 0 -2603.7 1529.39 0 0 2603.7zm167.39 -3834.87l-1037.45 0 0 -2968.11 964.92 0 20.05 520.44c118.54,-208.51 257.55,-360.1 416.69,-454.51 159.14,-94.48 357.62,-141.55 594.55,-141.55l82.68 0 0 1106.73 -109.33 0 -114.98 0c-323.1,0 -539.47,36.73 -650.52,110.4 -111.03,73.67 -166.62,250.83 -166.62,532.05l0 1294.55zm2123.05 3548.63l-157.36 0c9.58,-24.49 14.41,-50.82 14.41,-79.31 0,-60.21 -20.56,-111.1 -62.06,-154.06 -41.56,-42.38 -92.26,-63.77 -152.15,-63.77 -59.9,0 -110.15,21.39 -152.16,63.77 -41.5,42.96 -62.05,93.85 -62.05,154.06 0,28.49 4.38,54.83 14.4,79.31l-188.45 0c85.73,-83.94 129.45,-193.78 129.45,-329.5 0,-107.11 -31.03,-195.87 -92.71,-267.26 -61.23,-71.44 -163.51,-135.72 -306.47,-192.13 -31.48,-13.46 -76.09,-30.27 -134.2,-50.83 -183.19,-67.01 -274.56,-140.55 -274.56,-221.13 0,-53.56 20.55,-96.71 61.61,-128.56 40.67,-32.11 94.41,-48.41 162.24,-48.41 61.61,0 114.97,14.34 161.74,43.4 45.88,29.19 78.68,68.02 96.64,117.27l252.23 -173.42c-39.34,-82.23 -101.84,-144.86 -187.12,-188.64 -86.11,-44.29 -188.84,-66.69 -309.07,-66.69 -178.37,0 -321.77,43.08 -430.21,129 -108.89,86.55 -163.07,198.8 -163.07,337.38 0,101.46 32.81,187.56 98.8,258.5 65.61,71.07 181.86,140.55 347.59,209.2 29.7,13.46 71.7,29.63 126.34,49.3 161.36,59.77 241.75,131.66 241.75,216.06 0,62.88 -22.71,112.68 -68.2,149.62 -44.99,36.17 -107.56,54.7 -187.06,54.7 -93.15,0 -168.34,-20.12 -227.79,-60.34 -59.07,-40.8 -99.24,-99.37 -121.13,-177.1l-294.23 160.48c34.52,70.68 76.97,130.52 127.23,179.12l-270.18 0 0 -2460.67 2005.85 0 0 2460.67z"/>
  </g>
 </g>
</svg>
