<svg xmlns="http://www.w3.org/2000/svg" viewBox="0 0 1057 180" width="4229" height="720">
<path d="M864 76H714L1260 640H1510V0H1260V436L1335 405L940 0H640L244 404L320 435V0H70V640H320Z" fill="#0a0a0a" transform="translate(0,0) scale(0.15,-0.15) translate(0,-900)"/>
<path d="M45 490H285V0H45ZM543 305Q478 305 424.0 293.0Q370 281 332.0 264.5Q294 248 275 232L273 280Q276 301 289.0 329.5Q302 358 324.0 388.5Q346 419 378.0 445.5Q410 472 451.5 488.5Q493 505 543 505Z" fill="#0a0a0a" transform="translate(237.0,0) scale(0.15,-0.15) translate(0,-900)"/>
<path d="M304 151V0H50V151Z" fill="#CC0000" transform="translate(321.45,0) scale(0.15,-0.15) translate(0,-900)"/>
<path d="M302 165V340H801Q831 340 851.5 349.5Q872 359 872 390Q872 422 851.5 431.0Q831 440 801 440H318V0H68V640H762Q837 640 902.5 629.5Q968 619 1017.0 592.0Q1066 565 1094.0 516.0Q1122 467 1122 390Q1122 313 1094.0 268.0Q1066 223 1017.0 201.0Q968 179 902.5 172.0Q837 165 762 165Z" fill="#0a0a0a" transform="translate(374.55,0) scale(0.15,-0.15) translate(0,-900)"/>
<path d="M45 490H285V0H45ZM543 305Q478 305 424.0 293.0Q370 281 332.0 264.5Q294 248 275 232L273 280Q276 301 289.0 329.5Q302 358 324.0 388.5Q346 419 378.0 445.5Q410 472 451.5 488.5Q493 505 543 505Z" fill="#0a0a0a" transform="translate(551.1,0) scale(0.15,-0.15) translate(0,-900)"/>
<path d="M721 176H957Q948 118 899.5 75.0Q851 32 758.5 8.5Q666 -15 523 -15Q372 -15 262.5 9.0Q153 33 94.0 90.0Q35 147 35 244Q35 340 92.5 397.5Q150 455 259.0 480.0Q368 505 523 505Q675 505 772.0 478.0Q869 451 915.0 390.5Q961 330 959 227H279Q284 201 307.5 179.0Q331 157 380.5 143.5Q430 130 513 130Q599 130 654.5 142.0Q710 154 721 176ZM513 360Q407 360 351.5 337.0Q296 314 286 291H726Q719 317 670.0 338.5Q621 360 513 360Z" fill="#0a0a0a" transform="translate(635.5500000000001,0) scale(0.15,-0.15) translate(0,-900)"/>
<path d="M40 176H261Q275 150 314.5 140.0Q354 130 428 130Q485 130 512.5 136.0Q540 142 548.5 152.0Q557 162 557 173Q557 190 538.5 196.5Q520 203 476.0 204.5Q432 206 355 206Q282 206 224.5 212.5Q167 219 127.0 233.5Q87 248 66.0 274.0Q45 300 45 339Q45 387 76.0 419.5Q107 452 160.0 470.5Q213 489 282.5 497.0Q352 505 428 505Q554 505 634.0 479.5Q714 454 752.0 411.0Q790 368 789 314H574Q563 340 532.5 350.0Q502 360 428 360Q358 360 326.5 349.5Q295 339 295 316Q295 301 310.5 293.5Q326 286 369.5 283.0Q413 280 497 280Q555 280 610.5 276.0Q666 272 710.5 259.0Q755 246 781.0 219.0Q807 192 807 145Q807 88 760.5 52.5Q714 17 629.0 1.0Q544 -15 428 -15Q327 -15 257.5 -2.0Q188 11 144.0 32.5Q100 54 76.5 79.5Q53 105 45.5 130.5Q38 156 40 176Z" fill="#0a0a0a" transform="translate(784.6500000000001,0) scale(0.15,-0.15) translate(0,-900)"/>
<path d="M40 176H261Q275 150 314.5 140.0Q354 130 428 130Q485 130 512.5 136.0Q540 142 548.5 152.0Q557 162 557 173Q557 190 538.5 196.5Q520 203 476.0 204.5Q432 206 355 206Q282 206 224.5 212.5Q167 219 127.0 233.5Q87 248 66.0 274.0Q45 300 45 339Q45 387 76.0 419.5Q107 452 160.0 470.5Q213 489 282.5 497.0Q352 505 428 505Q554 505 634.0 479.5Q714 454 752.0 411.0Q790 368 789 314H574Q563 340 532.5 350.0Q502 360 428 360Q358 360 326.5 349.5Q295 339 295 316Q295 301 310.5 293.5Q326 286 369.5 283.0Q413 280 497 280Q555 280 610.5 276.0Q666 272 710.5 259.0Q755 246 781.0 219.0Q807 192 807 145Q807 88 760.5 52.5Q714 17 629.0 1.0Q544 -15 428 -15Q327 -15 257.5 -2.0Q188 11 144.0 32.5Q100 54 76.5 79.5Q53 105 45.5 130.5Q38 156 40 176Z" fill="#0a0a0a" transform="translate(910.95,0) scale(0.15,-0.15) translate(0,-900)"/>
</svg>